<svg width="64" height="44" viewBox="0 0 64 44" fill="none" xmlns="http://www.w3.org/2000/svg">
<g id="Group 17678">
<g id="Layer 10">
<path id="Vector" d="M11.9539 8.38281H10.9589C9.72061 8.38281 8.71674 9.38668 8.71674 10.625V24.0853C8.71674 25.3236 9.72061 26.3275 10.9589 26.3275H11.9539C13.1923 26.3275 14.1962 25.3236 14.1962 24.0853V10.625C14.1962 9.38668 13.1923 8.38281 11.9539 8.38281Z" fill="#F86624"/>
<path id="Vector_2" d="M21.632 8.38281H20.637C19.3987 8.38281 18.3948 9.38668 18.3948 10.625V24.0853C18.3948 25.3236 19.3987 26.3275 20.637 26.3275H21.632C22.8704 26.3275 23.8742 25.3236 23.8742 24.0853V10.625C23.8742 9.38668 22.8704 8.38281 21.632 8.38281Z" fill="#F86624"/>
<path id="Vector_3" d="M31.9499 8.38281H30.9549C29.7165 8.38281 28.7126 9.38668 28.7126 10.625V24.0853C28.7126 25.3236 29.7165 26.3275 30.9549 26.3275H31.9499C33.1882 26.3275 34.1921 25.3236 34.1921 24.0853V10.625C34.1921 9.38668 33.1882 8.38281 31.9499 8.38281Z" fill="#F86624"/>
<path id="Vector_4" d="M12.0097 39.8291C13.4958 39.8291 14.7006 38.6244 14.7006 37.1382C14.7006 35.652 13.4958 34.4473 12.0097 34.4473C10.5235 34.4473 9.31874 35.652 9.31874 37.1382C9.31874 38.6244 10.5235 39.8291 12.0097 39.8291Z" fill="#F86624"/>
<path id="Vector_5" d="M27.4515 39.8291C28.9376 39.8291 30.1424 38.6244 30.1424 37.1382C30.1424 35.652 28.9376 34.4473 27.4515 34.4473C25.9653 34.4473 24.7605 35.652 24.7605 37.1382C24.7605 38.6244 25.9653 39.8291 27.4515 39.8291Z" fill="#F86624"/>
<path id="Vector_6" d="M52.2218 39.8291C53.708 39.8291 54.9127 38.6244 54.9127 37.1382C54.9127 35.652 53.708 34.4473 52.2218 34.4473C50.7357 34.4473 49.5309 35.652 49.5309 37.1382C49.5309 38.6244 50.7357 39.8291 52.2218 39.8291Z" fill="#F86624"/>
<path id="Vector_7" d="M45.3293 17.4212V20.8424C45.3297 21.2026 45.4729 21.548 45.7276 21.8027C45.9824 22.0574 46.3278 22.2007 46.688 22.2011H54.4431C54.6906 22.2005 54.9333 22.1323 55.1449 22.0038C55.3565 21.8754 55.529 21.6916 55.6437 21.4722C55.7585 21.2529 55.8111 21.0064 55.796 20.7593C55.7809 20.5123 55.6986 20.274 55.5579 20.0703L53.2 16.6492C53.0752 16.4688 52.9086 16.3213 52.7145 16.2191C52.5204 16.117 52.3045 16.0633 52.0852 16.0625H46.688C46.5096 16.0625 46.3329 16.0976 46.168 16.1659C46.0032 16.2342 45.8534 16.3343 45.7272 16.4605C45.6011 16.5866 45.501 16.7364 45.4327 16.9013C45.3644 17.0661 45.3293 17.2428 45.3293 17.4212Z" fill="#F86624"/>
<path id="Vector_8" d="M62.7431 24.957H57.3515V30.3487H62.7431V24.957Z" fill="#F86624"/>
</g>
<g id="Layer 3">
<path id="Vector_9" d="M41.7088 33.9258C41.4501 33.9258 41.2019 33.8231 41.019 33.6401C40.8361 33.4572 40.7333 33.2091 40.7333 32.9504V2.80102C40.7329 2.57569 40.6432 2.35968 40.4839 2.20035C40.3246 2.04101 40.1086 1.95133 39.8832 1.95096H2.79963C2.57442 1.95133 2.35856 2.04105 2.19945 2.20043C2.04033 2.35981 1.95096 2.57582 1.95096 2.80102V32.9504C1.95096 33.2091 1.84819 33.4572 1.66525 33.6401C1.48231 33.8231 1.23419 33.9258 0.975481 33.9258C0.716767 33.9258 0.46865 33.8231 0.285712 33.6401C0.102774 33.4572 0 33.2091 0 32.9504V2.80102C0.000737158 2.05861 0.29589 1.3468 0.820723 0.821708C1.34556 0.296613 2.05722 0.00110661 2.79963 0H39.8832C40.6258 0.00110579 41.3376 0.296568 41.8626 0.821622C42.3877 1.34668 42.6832 2.05849 42.6843 2.80102V32.9504C42.6843 33.2091 42.5815 33.4572 42.3985 33.6401C42.2156 33.8231 41.9675 33.9258 41.7088 33.9258Z" fill="#005D63"/>
<path id="Vector_10" d="M62.9047 33.9246C62.6459 33.9246 62.3978 33.8218 62.2149 33.6389C62.0319 33.456 61.9292 33.2078 61.9292 32.9491V22.3582C61.9312 22.0792 61.8322 21.809 61.6505 21.5973L53.986 12.8082C53.8831 12.6895 53.756 12.5943 53.6132 12.5289C53.4704 12.4635 53.3153 12.4295 53.1582 12.4292H43.7936C43.6455 12.4306 43.4991 12.4613 43.3629 12.5194C43.2266 12.5775 43.1032 12.6619 42.9997 12.7678C42.8961 12.8737 42.8144 12.999 42.7594 13.1365C42.7043 13.274 42.6769 13.421 42.6788 13.5691V30.8337C42.6787 31.0924 42.576 31.3406 42.393 31.5235C42.2101 31.7064 41.962 31.8092 41.7033 31.8092C41.4446 31.8092 41.1964 31.7064 41.0135 31.5235C40.8306 31.3406 40.7278 31.0924 40.7278 30.8337V13.5635C40.7248 12.7472 41.0461 11.9631 41.6209 11.3835C42.1958 10.804 42.9773 10.4763 43.7936 10.4727H53.154C53.5897 10.4731 54.0202 10.5669 54.4165 10.7476C54.8129 10.9284 55.166 11.192 55.452 11.5206L63.1165 20.3097C63.6094 20.8761 63.8806 21.6018 63.8801 22.3526V32.9436C63.8809 33.0721 63.8562 33.1996 63.8075 33.3186C63.7588 33.4376 63.6871 33.5458 63.5964 33.6369C63.5057 33.7281 63.398 33.8005 63.2792 33.8498C63.1605 33.8992 63.0332 33.9246 62.9047 33.9246Z" fill="#005D63"/>
<path id="Vector_11" d="M21.1191 38.1502H17.546C17.2873 38.1502 17.0392 38.0474 16.8563 37.8645C16.6733 37.6815 16.5706 37.4334 16.5706 37.1747C16.5706 36.916 16.6733 36.6679 16.8563 36.4849C17.0392 36.302 17.2873 36.1992 17.546 36.1992H21.1191C21.3778 36.1992 21.6259 36.302 21.8089 36.4849C21.9918 36.6679 22.0946 36.916 22.0946 37.1747C22.0946 37.4334 21.9918 37.6815 21.8089 37.8645C21.6259 38.0474 21.3778 38.1502 21.1191 38.1502Z" fill="#005D63"/>
<path id="Vector_12" d="M46.3046 38.1502H32.8192C32.5605 38.1502 32.3124 38.0474 32.1295 37.8645C31.9465 37.6815 31.8438 37.4334 31.8438 37.1747C31.8438 36.916 31.9465 36.6679 32.1295 36.4849C32.3124 36.302 32.5605 36.1992 32.8192 36.1992H46.3046C46.5633 36.1992 46.8114 36.302 46.9943 36.4849C47.1773 36.6679 47.28 36.916 47.28 37.1747C47.28 37.4334 47.1773 37.6815 46.9943 37.8645C46.8114 38.0474 46.5633 38.1502 46.3046 38.1502Z" fill="#005D63"/>
<path id="Vector_13" d="M62.9045 38.1494H57.9993C57.7406 38.1494 57.4924 38.0466 57.3095 37.8637C57.1266 37.6808 57.0238 37.4326 57.0238 37.1739C57.0238 36.9152 57.1266 36.6671 57.3095 36.4841C57.4924 36.3012 57.7406 36.1984 57.9993 36.1984H61.9291V33.9256H56.2016C55.9429 33.9256 55.6948 33.8228 55.5118 33.6399C55.3289 33.4569 55.2261 33.2088 55.2261 32.9501C55.2261 32.6914 55.3289 32.4433 55.5118 32.2603C55.6948 32.0774 55.9429 31.9746 56.2016 31.9746H62.9045C63.1633 31.9746 63.4114 32.0774 63.5943 32.2603C63.7773 32.4433 63.88 32.6914 63.88 32.9501V37.1739C63.88 37.4326 63.7773 37.6808 63.5943 37.8637C63.4114 38.0466 63.1633 38.1494 62.9045 38.1494Z" fill="#005D63"/>
<path id="Vector_14" d="M47.7665 33.9256H31.94C31.6813 33.9256 31.4332 33.8228 31.2502 33.6399C31.0673 33.4569 30.9645 33.2088 30.9645 32.9501C30.9645 32.6914 31.0673 32.4433 31.2502 32.2603C31.4332 32.0774 31.6813 31.9746 31.94 31.9746H47.7665C48.0252 31.9746 48.2733 32.0774 48.4563 32.2603C48.6392 32.4433 48.742 32.6914 48.742 32.9501C48.742 33.2088 48.6392 33.4569 48.4563 33.6399C48.2733 33.8228 48.0252 33.9256 47.7665 33.9256Z" fill="#005D63"/>
<path id="Vector_15" d="M22.4081 33.9256H16.2515C15.9927 33.9256 15.7446 33.8228 15.5617 33.6399C15.3787 33.4569 15.276 33.2088 15.276 32.9501C15.276 32.6914 15.3787 32.4433 15.5617 32.2603C15.7446 32.0774 15.9927 31.9746 16.2515 31.9746H22.4081C22.6668 31.9746 22.915 32.0774 23.0979 32.2603C23.2808 32.4433 23.3836 32.6914 23.3836 32.9501C23.3836 33.2088 23.2808 33.4569 23.0979 33.6399C22.915 33.8228 22.6668 33.9256 22.4081 33.9256Z" fill="#005D63"/>
<path id="Vector_16" d="M5.36514 38.1494H0.975481C0.716767 38.1494 0.46865 38.0466 0.285712 37.8637C0.102774 37.6808 0 37.4326 0 37.1739V32.9501C0 32.6914 0.102774 32.4433 0.285712 32.2603C0.46865 32.0774 0.716767 31.9746 0.975481 31.9746H6.94264C7.20135 31.9746 7.44947 32.0774 7.63241 32.2603C7.81534 32.4433 7.91812 32.6914 7.91812 32.9501C7.91812 33.2088 7.81534 33.4569 7.63241 33.6399C7.44947 33.8228 7.20135 33.9256 6.94264 33.9256H1.95096V36.1984H5.36514C5.62386 36.1984 5.87198 36.3012 6.05491 36.4841C6.23785 36.6671 6.34063 36.9152 6.34063 37.1739C6.34063 37.4326 6.23785 37.6808 6.05491 37.8637C5.87198 38.0466 5.62386 38.1494 5.36514 38.1494Z" fill="#005D63"/>
<path id="Vector_17" d="M11.696 44.0005C10.3455 44.0005 9.02533 43.6 7.90241 42.8497C6.77949 42.0994 5.90428 41.0329 5.38746 39.7852C4.87063 38.5375 4.73541 37.1645 4.99888 35.84C5.26236 34.5154 5.9127 33.2987 6.86766 32.3437C7.82262 31.3888 9.03932 30.7384 10.3639 30.475C11.6885 30.2115 13.0614 30.3467 14.3091 30.8635C15.5569 31.3804 16.6233 32.2556 17.3736 33.3785C18.1239 34.5014 18.5244 35.8216 18.5244 37.1721C18.5244 38.9831 17.805 40.7199 16.5244 42.0005C15.2439 43.2811 13.507 44.0005 11.696 44.0005ZM11.696 32.2947C10.7314 32.2947 9.78839 32.5808 8.9863 33.1167C8.18422 33.6526 7.55907 34.4144 7.18991 35.3056C6.82075 36.1968 6.72416 37.1775 6.91236 38.1237C7.10055 39.0698 7.56508 39.9388 8.2472 40.621C8.92932 41.3031 9.79839 41.7676 10.7445 41.9558C11.6906 42.144 12.6713 42.0474 13.5625 41.6783C14.4538 41.3091 15.2155 40.6839 15.7515 39.8819C16.2874 39.0798 16.5734 38.1368 16.5734 37.1721C16.572 35.8795 16.0575 34.6404 15.1429 33.7269C14.2284 32.8134 12.9886 32.3003 11.696 32.3003V32.2947Z" fill="#005D63"/>
<path id="Vector_18" d="M26.9692 44.0005C25.6187 44.0005 24.2985 43.6 23.1756 42.8497C22.0527 42.0994 21.1775 41.0329 20.6607 39.7852C20.1438 38.5375 20.0086 37.1645 20.2721 35.84C20.5356 34.5154 21.1859 33.2987 22.1409 32.3437C23.0958 31.3888 24.3125 30.7384 25.6371 30.475C26.9617 30.2115 28.3346 30.3467 29.5823 30.8635C30.8301 31.3804 31.8965 32.2556 32.6468 33.3785C33.3971 34.5014 33.7976 35.8216 33.7976 37.1721C33.7976 38.9831 33.0782 40.7199 31.7976 42.0005C30.5171 43.2811 28.7802 44.0005 26.9692 44.0005ZM26.9692 32.2947C26.0046 32.2947 25.0616 32.5808 24.2595 33.1167C23.4574 33.6526 22.8323 34.4144 22.4631 35.3056C22.0939 36.1968 21.9974 37.1775 22.1856 38.1237C22.3737 39.0698 22.8383 39.9388 23.5204 40.621C24.2025 41.3031 25.0716 41.7676 26.0177 41.9558C26.9638 42.144 27.9445 42.0474 28.8357 41.6783C29.727 41.3091 30.4887 40.6839 31.0247 39.8819C31.5606 39.0798 31.8466 38.1368 31.8466 37.1721C31.8452 35.8795 31.3306 34.6404 30.4161 33.7269C29.5016 32.8134 28.2618 32.3003 26.9692 32.3003V32.2947Z" fill="#005D63"/>
<path id="Vector_19" d="M52.1548 44.0005C50.8043 44.0005 49.4841 43.6 48.3611 42.8497C47.2382 42.0994 46.363 41.0329 45.8462 39.7852C45.3294 38.5375 45.1941 37.1645 45.4576 35.84C45.7211 34.5154 46.3714 33.2987 47.3264 32.3437C48.2814 31.3888 49.4981 30.7384 50.8226 30.475C52.1472 30.2115 53.5202 30.3467 54.7679 30.8635C56.0156 31.3804 57.0821 32.2556 57.8324 33.3785C58.5827 34.5014 58.9832 35.8216 58.9832 37.1721C58.9832 38.9831 58.2637 40.7199 56.9832 42.0005C55.7026 43.2811 53.9658 44.0005 52.1548 44.0005ZM52.1548 32.2947C51.1901 32.2947 50.2471 32.5808 49.445 33.1167C48.643 33.6526 48.0178 34.4144 47.6486 35.3056C47.2795 36.1968 47.1829 37.1775 47.3711 38.1237C47.5593 39.0698 48.0238 39.9388 48.7059 40.621C49.3881 41.3031 50.2571 41.7676 51.2032 41.9558C52.1494 42.144 53.1301 42.0474 54.0213 41.6783C54.9125 41.3091 55.6743 40.6839 56.2102 39.8819C56.7461 39.0798 57.0322 38.1368 57.0322 37.1721C57.0307 35.8795 56.5162 34.6404 55.6017 33.7269C54.6871 32.8134 53.4474 32.3003 52.1548 32.3003V32.2947Z" fill="#005D63"/>
</g>
</g>
</svg>
