<svg xmlns="http://www.w3.org/2000/svg" width="24" height="22" viewBox="0 0 20 18" fill="none">
<path d="M9.27461 3.23814L9.99818 3.99664L10.7218 3.23814C11.5887 2.32935 12.9625 1.25 14.4264 1.25C15.8284 1.25 16.959 1.73535 17.7369 2.51299C18.5147 3.29061 19 4.4207 19 5.82174C19 7.33844 18.4111 8.61238 17.4514 9.81026C16.4726 11.032 15.159 12.1147 13.7649 13.2587C13.7649 13.2587 13.7648 13.2588 13.7648 13.2588L13.7425 13.2771C12.4793 14.3131 11.0894 15.4531 9.99867 16.7313C8.91871 15.4638 7.54168 14.3327 6.28932 13.304L6.23476 13.2592L6.23436 13.2588C4.83983 12.1145 3.52644 11.0315 2.54792 9.8097C1.58858 8.61185 1 7.3381 1 5.82174C1 4.4207 1.4853 3.29064 2.26322 2.51303C3.04115 1.7354 4.172 1.25 5.57455 1.25C7.03697 1.25 8.40689 2.32853 9.27461 3.23814Z" stroke="white" stroke-width="2"/>
</svg>