<svg xmlns="http://www.w3.org/2000/svg" width="18" height="18" viewBox="0 0 18 18" fill="none">
<g clip-path="url(#clip0_460_310)">
<path d="M15.9375 6.54019C15.9375 7.41019 15.6075 8.28769 14.94 8.95519L13.83 10.0652L9.0525 14.8427C9.03 14.8652 9.0225 14.8727 9 14.8877C8.9775 14.8727 8.97 14.8652 8.9475 14.8427L3.06 8.95519C2.3925 8.28769 2.0625 7.41769 2.0625 6.54019C2.0625 5.66269 2.3925 4.7852 3.06 4.1177C4.395 2.7902 6.555 2.7902 7.89 4.1177L8.9925 5.22769L10.1025 4.1177C11.4375 2.7902 13.59 2.7902 14.925 4.1177C15.6075 4.7852 15.9375 5.65519 15.9375 6.54019Z" stroke="#131717" stroke-width="1.5" stroke-linecap="round" stroke-linejoin="round"/>
</g>
<defs>
<clipPath id="clip0_460_310">
<rect width="18" height="18" fill="white"/>
</clipPath>
</defs>
</svg>