<svg xmlns="http://www.w3.org/2000/svg" width="21" height="18" viewBox="0 0 21 18" fill="none">
<path d="M20.8421 4.67031V14.5385C20.8421 15.4565 20.499 16.337 19.8883 16.9861C19.2775 17.6353 18.4492 18 17.5855 18H3.25658C2.39288 18 1.56456 17.6353 0.95383 16.9861C0.343103 16.337 0 15.4565 0 14.5385V4.67031L10.0902 10.9814C10.1904 11.0442 10.3047 11.0774 10.4211 11.0774C10.5374 11.0774 10.6517 11.0442 10.7519 10.9814L20.8421 4.67031ZM17.5855 4.28576e-08C18.3868 -0.000133914 19.1601 0.313763 19.7573 0.88164C20.3545 1.44952 20.7338 2.2315 20.8226 3.078L10.4211 9.58154L0.0195396 3.078C0.108325 2.2315 0.487606 1.44952 1.08482 0.88164C1.68204 0.313763 2.45527 -0.000133914 3.25658 4.28576e-08H17.5855Z" fill="black"/>
</svg>