<svg width="51" height="44" viewBox="0 0 51 44" fill="none" xmlns="http://www.w3.org/2000/svg">
<g id="Group 17680">
<g id="Layer 10">
<path id="Vector" d="M11.4089 12.8102L12.1511 14.3157C12.1974 14.4092 12.2658 14.49 12.3503 14.5513C12.4349 14.6125 12.533 14.6522 12.6363 14.6671L14.2978 14.9097C14.4164 14.927 14.5279 14.9772 14.6195 15.0545C14.7111 15.1319 14.7793 15.2333 14.8162 15.3474C14.8532 15.4615 14.8575 15.5836 14.8287 15.7C14.7999 15.8164 14.7391 15.9224 14.6532 16.006L13.452 17.1784C13.3771 17.251 13.3211 17.3408 13.2889 17.44C13.2567 17.5392 13.2492 17.6447 13.2671 17.7475L13.5503 19.4024C13.5704 19.5207 13.557 19.6422 13.5117 19.7533C13.4663 19.8644 13.3909 19.9606 13.2938 20.0311C13.1967 20.1016 13.0819 20.1436 12.9622 20.1523C12.8426 20.161 12.7229 20.1361 12.6166 20.0804L11.1322 19.3001C11.0399 19.2511 10.937 19.2255 10.8325 19.2255C10.728 19.2255 10.6251 19.2511 10.5329 19.3001L9.04711 20.0804C8.94093 20.1363 8.82124 20.1613 8.70157 20.1526C8.58191 20.144 8.46707 20.102 8.37004 20.0314C8.273 19.9609 8.19766 19.8646 8.15254 19.7534C8.10742 19.6422 8.09432 19.5206 8.11473 19.4024L8.39798 17.7475C8.41531 17.6447 8.40754 17.5393 8.37534 17.4402C8.34315 17.3411 8.28748 17.2513 8.21308 17.1784L7.01057 16.006C6.92462 15.9223 6.86382 15.8162 6.83507 15.6997C6.80632 15.5832 6.81075 15.461 6.84787 15.3469C6.885 15.2328 6.95332 15.1314 7.04511 15.0541C7.13691 14.9768 7.2485 14.9268 7.36725 14.9097L9.03399 14.6671C9.13721 14.6525 9.23527 14.6128 9.31962 14.5515C9.40397 14.4903 9.47204 14.4093 9.51788 14.3157L10.2614 12.8102C10.315 12.704 10.397 12.6148 10.4983 12.5524C10.5996 12.49 10.7162 12.457 10.8351 12.457C10.9541 12.457 11.0707 12.49 11.172 12.5524C11.2733 12.6148 11.3553 12.704 11.4089 12.8102Z" fill="#F86624"/>
<path id="Vector_2" d="M40.4856 12.8105L41.2292 14.316C41.2752 14.4094 41.3433 14.4903 41.4276 14.5515C41.5119 14.6128 41.6099 14.6525 41.713 14.6674L43.3745 14.91C43.4933 14.9271 43.6049 14.9771 43.6967 15.0544C43.7885 15.1317 43.8568 15.2331 43.8939 15.3472C43.931 15.4613 43.9355 15.5835 43.9067 15.7C43.878 15.8165 43.8172 15.9226 43.7312 16.0063L42.5287 17.1786C42.4541 17.2515 42.3982 17.3413 42.3657 17.4404C42.3333 17.5395 42.3253 17.6449 42.3425 17.7478L42.6271 19.4027C42.6471 19.521 42.6337 19.6425 42.5884 19.7536C42.5431 19.8647 42.4676 19.9609 42.3706 20.0314C42.2735 20.1019 42.1586 20.1438 42.039 20.1526C41.9193 20.1613 41.7996 20.1364 41.6934 20.0807L40.2076 19.3004C40.1153 19.2514 40.0124 19.2258 39.908 19.2258C39.8035 19.2258 39.7006 19.2514 39.6083 19.3004L38.1225 20.0807C38.0163 20.1364 37.8966 20.1613 37.7769 20.1526C37.6573 20.1438 37.5424 20.1019 37.4454 20.0314C37.3483 19.9609 37.2728 19.8647 37.2275 19.7536C37.1822 19.6425 37.1688 19.521 37.1889 19.4027L37.4721 17.7478C37.49 17.645 37.4825 17.5395 37.4503 17.4403C37.4181 17.3411 37.3621 17.2513 37.2872 17.1786L36.086 16.0063C36.0001 15.9226 35.9393 15.8165 35.9105 15.7C35.8818 15.5835 35.8862 15.4613 35.9233 15.3472C35.9604 15.2331 36.0288 15.1317 36.1206 15.0544C36.2123 14.9771 36.3239 14.9271 36.4427 14.91L38.1029 14.6674C38.2062 14.6525 38.3043 14.6128 38.3888 14.5515C38.4734 14.4903 38.5417 14.4095 38.5881 14.316L39.3264 12.8105C39.3787 12.7012 39.4609 12.6088 39.5635 12.5442C39.666 12.4796 39.7848 12.4453 39.906 12.4453C40.0272 12.4453 40.146 12.4796 40.2485 12.5442C40.3511 12.6088 40.4333 12.7012 40.4856 12.8105Z" fill="#F86624"/>
<path id="Vector_3" d="M26.0161 9.31483L27.1399 11.59C27.2095 11.7316 27.3124 11.854 27.4399 11.9468C27.5674 12.0395 27.7156 12.0998 27.8717 12.1225L30.3829 12.487C30.5624 12.5133 30.731 12.5892 30.8696 12.7062C31.0082 12.8232 31.1114 12.9766 31.1674 13.1491C31.2235 13.3216 31.2302 13.5064 31.1868 13.6825C31.1434 13.8586 31.0516 14.0191 30.9219 14.1459L29.1043 15.9162C28.9915 16.0265 28.9071 16.1625 28.8585 16.3126C28.8098 16.4626 28.7983 16.6223 28.825 16.7778L29.2538 19.2772C29.2844 19.456 29.2643 19.6398 29.1959 19.8079C29.1275 19.9759 29.0135 20.1214 28.8667 20.2281C28.72 20.3347 28.5463 20.3982 28.3654 20.4114C28.1845 20.4246 28.0035 20.387 27.8428 20.3027L25.5964 19.1225C25.457 19.0489 25.3017 19.0104 25.144 19.0104C24.9863 19.0104 24.831 19.0489 24.6916 19.1225L22.4466 20.3027C22.2859 20.387 22.1049 20.4246 21.924 20.4114C21.743 20.3982 21.5694 20.3347 21.4226 20.2281C21.2759 20.1214 21.1619 19.9759 21.0935 19.8079C21.0251 19.6398 21.005 19.456 21.0355 19.2772L21.4644 16.7778C21.4907 16.6223 21.479 16.4627 21.4304 16.3127C21.3818 16.1627 21.2976 16.0267 21.185 15.9162L19.3675 14.1459C19.2377 14.0191 19.146 13.8586 19.1026 13.6825C19.0592 13.5064 19.0659 13.3216 19.122 13.1491C19.178 12.9766 19.2812 12.8232 19.4198 12.7062C19.5584 12.5892 19.727 12.5133 19.9065 12.487L22.4177 12.1225C22.5737 12.0996 22.7218 12.0392 22.8492 11.9465C22.9767 11.8537 23.0797 11.7314 23.1495 11.59L24.272 9.31483C24.3524 9.15228 24.4767 9.01546 24.6308 8.91979C24.7849 8.82413 24.9627 8.77344 25.144 8.77344C25.3254 8.77344 25.5032 8.82413 25.6572 8.91979C25.8113 9.01546 25.9356 9.15228 26.0161 9.31483Z" fill="#F86624"/>
<path id="Vector_4" d="M27.5085 33.3555L25.1481 37.3748L23.223 33.3673C17.1042 33.8066 12.4528 36.0018 12.4528 38.6442C12.4528 41.6026 18.2844 44.0011 25.4772 44.0011C32.67 44.0011 38.5016 41.6026 38.5016 38.6442C38.5016 35.9729 33.7362 33.7607 27.5085 33.3555Z" fill="#F86624"/>
</g>
<g id="Layer 3">
<path id="Vector_5" d="M25.502 38.4976C25.3335 38.4976 25.1684 38.4506 25.0253 38.3618C24.8821 38.2731 24.7665 38.1462 24.6916 37.9953L20.9162 30.4012H3.98391C2.92751 30.3998 1.91479 29.9795 1.16793 29.2324C0.421065 28.4853 0.0010409 27.4724 0 26.416V3.98391C0.00138788 2.92774 0.421565 1.91522 1.16839 1.16839C1.91522 0.421566 2.92774 0.00138788 3.98391 0H46.9742C48.0304 0.00138788 49.0429 0.421566 49.7897 1.16839C50.5365 1.91522 50.9567 2.92774 50.9581 3.98391V26.416C50.9567 27.4722 50.5365 28.4847 49.7897 29.2315C49.0429 29.9783 48.0304 30.3985 46.9742 30.3999H30.0865L26.3111 37.9953C26.2363 38.146 26.1209 38.2728 25.978 38.3615C25.835 38.4502 25.6702 38.4973 25.502 38.4976ZM3.98391 1.80836C3.40713 1.80906 2.85418 2.03849 2.44633 2.44633C2.03849 2.85418 1.80906 3.40713 1.80836 3.98391V26.416C1.80871 26.993 2.03799 27.5463 2.44587 27.9544C2.85375 28.3626 3.4069 28.5922 3.98391 28.5929H21.4761C21.6446 28.5928 21.8097 28.6399 21.9529 28.7286C22.096 28.8173 22.2116 28.9443 22.2865 29.0951L25.502 35.5627L28.7161 29.0951C28.7911 28.9443 28.9066 28.8173 29.0498 28.7286C29.193 28.6399 29.3581 28.5928 29.5266 28.5929H46.9742C47.5514 28.5925 48.1049 28.3631 48.5131 27.9549C48.9212 27.5467 49.1507 26.9932 49.151 26.416V3.98391C49.1503 3.4069 48.9207 2.85375 48.5126 2.44587C48.1045 2.03799 47.5512 1.80871 46.9742 1.80836H3.98391Z" fill="#005D63"/>
<path id="Vector_6" d="M13.4414 21.8255C13.1872 21.8257 12.9369 21.7635 12.7123 21.6446L10.8318 20.6558L8.9513 21.6446C8.69288 21.7804 8.40158 21.8413 8.11037 21.8202C7.81915 21.7992 7.53964 21.6971 7.30345 21.5254C7.06726 21.3538 6.88382 21.1194 6.77388 20.849C6.66394 20.5785 6.63188 20.2826 6.68134 19.9949L7.04065 17.8967L5.51948 16.424C5.3104 16.2203 5.16251 15.9621 5.09251 15.6787C5.02251 15.3953 5.03321 15.0979 5.1234 14.8203C5.21358 14.5426 5.37966 14.2958 5.60283 14.1076C5.82601 13.9194 6.09739 13.7974 6.38629 13.7554L8.48446 13.4499L9.42733 11.5445C9.55647 11.2826 9.75633 11.062 10.0043 10.9078C10.2523 10.7536 10.5385 10.6719 10.8305 10.6719C11.1225 10.6719 11.4087 10.7536 11.6567 10.9078C11.9046 11.062 12.1045 11.2826 12.2336 11.5445L13.1726 13.4499L15.2707 13.7554C15.5596 13.7974 15.831 13.9194 16.0542 14.1076C16.2774 14.2958 16.4434 14.5426 16.5336 14.8203C16.6238 15.0979 16.6345 15.3953 16.5645 15.6787C16.4945 15.9621 16.3466 16.2203 16.1375 16.424L14.6164 17.9072L14.9757 20.0054C15.0137 20.2301 15.0024 20.4604 14.9426 20.6804C14.8828 20.9004 14.776 21.1047 14.6294 21.2793C14.4829 21.4539 14.3002 21.5946 14.0939 21.6916C13.8877 21.7886 13.6628 21.8397 13.4348 21.8413L13.4414 21.8255ZM7.13376 15.4681L8.39398 16.6955C8.57495 16.873 8.71035 17.0916 8.78867 17.3327C8.86698 17.5738 8.88589 17.8303 8.84377 18.0803L8.54609 19.8152L10.104 18.9956C10.3287 18.8784 10.5784 18.8172 10.8318 18.8172C11.0852 18.8172 11.3349 18.8784 11.5596 18.9956L13.1162 19.8152L12.8185 18.0803C12.7758 17.8305 12.7945 17.5741 12.8728 17.3331C12.9512 17.0921 13.0869 16.8737 13.2683 16.6968L14.5285 15.4681L12.7883 15.215C12.537 15.179 12.2981 15.0824 12.0925 14.9334C11.8868 14.7844 11.7206 14.5876 11.6081 14.36L10.8305 12.7863L10.0515 14.36C9.93914 14.5877 9.77292 14.7846 9.56726 14.9336C9.36161 15.0825 9.12272 15.1791 8.87131 15.215L7.13376 15.4681Z" fill="#005D63"/>
<path id="Vector_7" d="M42.7359 21.8257C42.4813 21.8257 42.2306 21.7636 42.0055 21.6448L40.1263 20.656L38.2458 21.6448C37.9874 21.7806 37.6961 21.8415 37.4049 21.8204C37.1137 21.7994 36.8342 21.6973 36.598 21.5256C36.3618 21.354 36.1783 21.1196 36.0684 20.8492C35.9585 20.5787 35.9264 20.2828 35.9759 19.9951L36.3339 17.8969L34.8127 16.4137C34.6036 16.21 34.4557 15.9518 34.3857 15.6684C34.3157 15.385 34.3264 15.0877 34.4166 14.81C34.5068 14.5324 34.6729 14.2855 34.896 14.0973C35.1192 13.9091 35.3906 13.7871 35.6795 13.7451L37.7777 13.4396L38.7179 11.5342C38.8461 11.2716 39.0458 11.0505 39.294 10.8962C39.5422 10.742 39.8289 10.6608 40.1211 10.6621C40.4131 10.6611 40.6994 10.7424 40.9474 10.8966C41.1953 11.0508 41.3948 11.2718 41.5229 11.5342L42.4736 13.4501L44.5718 13.7556C44.8605 13.7979 45.1317 13.92 45.3548 14.1081C45.5778 14.2963 45.7438 14.543 45.8341 14.8205C45.9243 15.098 45.9353 15.3952 45.8656 15.6786C45.796 15.9619 45.6485 16.2202 45.4399 16.4242L43.9161 17.9074L44.2741 20.0056C44.311 20.2291 44.2988 20.458 44.2386 20.6764C44.1783 20.8948 44.0713 21.0976 43.9251 21.2706C43.7788 21.4437 43.5968 21.5829 43.3915 21.6788C43.1862 21.7746 42.9625 21.8247 42.7359 21.8257ZM40.1263 18.8214C40.3803 18.8216 40.6305 18.8832 40.8554 19.0011L42.412 19.8207L42.1143 18.0857C42.0717 17.8359 42.0903 17.5795 42.1686 17.3385C42.247 17.0975 42.3827 16.8792 42.5641 16.7022L43.8243 15.4735L42.0802 15.2204C41.8289 15.1845 41.59 15.0878 41.3844 14.9389C41.1787 14.7899 41.0125 14.5931 40.9 14.3654L40.1224 12.7918L39.3434 14.3654C39.231 14.5931 39.0647 14.7899 38.8591 14.9389C38.6534 15.0878 38.4146 15.1845 38.1632 15.2204L36.4217 15.4735L37.6819 16.7009C37.8655 16.877 38.0036 17.095 38.0844 17.3362C38.1653 17.5774 38.1865 17.8346 38.1462 18.0857L37.8485 19.8207L39.4051 19.0011C39.6277 18.8844 39.875 18.8228 40.1263 18.8214Z" fill="#005D63"/>
<path id="Vector_8" d="M29.0884 21.8276C28.7941 21.8272 28.5042 21.7552 28.2439 21.6178L25.5032 20.1753L22.7585 21.6178C22.4594 21.7738 22.1227 21.8432 21.7863 21.8181C21.4499 21.793 21.1272 21.6745 20.8545 21.4759C20.5819 21.2773 20.3701 21.0064 20.2431 20.6939C20.1161 20.3814 20.079 20.0396 20.1358 19.7071L20.6603 16.6556L18.4415 14.4918C18.1994 14.2558 18.0283 13.9567 17.9473 13.6285C17.8663 13.3002 17.8788 12.9558 17.9833 12.6343C18.0878 12.3127 18.2801 12.0268 18.5386 11.8089C18.7971 11.5909 19.1114 11.4496 19.446 11.401L22.5106 10.9564L23.8771 8.18946C24.0255 7.88539 24.2567 7.62936 24.5441 7.45075C24.8315 7.27214 25.1635 7.1782 25.5019 7.17971C25.8408 7.17793 26.1734 7.27171 26.4614 7.45031C26.7495 7.62891 26.9814 7.88508 27.1306 8.18946L28.4996 10.9656L31.5669 11.4128C31.9015 11.4614 32.2158 11.6027 32.4743 11.8207C32.7327 12.0386 32.9251 12.3245 33.0296 12.6461C33.1341 12.9676 33.1466 13.312 33.0656 13.6403C32.9846 13.9685 32.8134 14.2676 32.5714 14.5036L30.3539 16.6648L30.8784 19.7189C30.9212 19.9786 30.907 20.2445 30.8368 20.4981C30.7665 20.7517 30.6419 20.987 30.4716 21.1877C30.3013 21.3883 30.0893 21.5495 29.8505 21.66C29.6116 21.7705 29.3516 21.8277 29.0884 21.8276ZM25.5019 18.3682C25.7957 18.3685 26.085 18.44 26.3451 18.5767L29.0845 20.0192L28.5731 16.9664C28.5241 16.6766 28.5462 16.3792 28.6376 16.0998C28.729 15.8205 28.8868 15.5675 29.0976 15.3626L31.3138 13.2015L28.2478 12.7504C27.9571 12.7082 27.681 12.5959 27.4434 12.4232C27.2058 12.2505 27.0138 12.0225 26.884 11.759L25.5045 8.98283C25.5049 8.98066 25.5049 8.97844 25.5045 8.97627L24.1275 11.759C23.9978 12.0225 23.8058 12.2505 23.5682 12.4232C23.3305 12.5959 23.0545 12.7082 22.7637 12.7504L19.6991 13.1962L21.914 15.3639C22.1251 15.5685 22.2832 15.8215 22.3746 16.1009C22.466 16.3804 22.4879 16.6779 22.4385 16.9677L21.914 20.0179L24.66 18.582C24.9195 18.4452 25.2085 18.3736 25.5019 18.3735V18.3682Z" fill="#005D63"/>
</g>
</g>
</svg>
