<svg width="22" height="22" viewBox="0 0 22 22" fill="none" xmlns="http://www.w3.org/2000/svg">
<path d="M8.01472 7.1786L11 1.12978L13.9853 7.1786C14.1164 7.44423 14.3698 7.62835 14.6629 7.67094L21.3382 8.64092L16.5079 13.3493C16.2958 13.556 16.199 13.8539 16.2491 14.1459L17.3894 20.7942L11.4188 17.6553C11.1566 17.5174 10.8434 17.5174 10.5812 17.6553L4.61064 20.7942L5.75092 14.1459C5.80099 13.8539 5.7042 13.556 5.49208 13.3493L0.661802 8.64092L7.33708 7.67094C7.63022 7.62835 7.88363 7.44423 8.01472 7.1786ZM17.5687 20.8885L17.5683 20.8883L17.5687 20.8885Z" stroke="#F4A641"/>
</svg>
