<svg xmlns="http://www.w3.org/2000/svg" width="22" height="24" viewBox="0 0 22 24" fill="none">
<path d="M1.91641 9.10286C1.96195 8.53006 2.21956 7.9956 2.63793 7.6059C3.0563 7.21621 3.60473 6.99988 4.174 7H17.826C18.3953 6.99988 18.9437 7.21621 19.3621 7.6059C19.7804 7.9956 20.038 8.53006 20.0836 9.10286L20.9927 20.5314C21.0177 20.8459 20.978 21.1623 20.8759 21.4605C20.7739 21.7587 20.6118 22.0324 20.3998 22.2643C20.1879 22.4962 19.9306 22.6813 19.6443 22.8079C19.358 22.9345 19.0489 22.9999 18.7363 23H3.26372C2.95115 22.9999 2.64198 22.9345 2.35568 22.8079C2.06938 22.6813 1.81215 22.4962 1.60018 22.2643C1.38822 22.0324 1.22611 21.7587 1.12407 21.4605C1.02202 21.1623 0.982252 20.8459 1.00726 20.5314L1.91641 9.10286V9.10286Z" stroke="white" stroke-width="2" stroke-linecap="round" stroke-linejoin="round"/>
<path d="M15 10V5C15 3.93913 14.5786 2.92172 13.8284 2.17157C13.0783 1.42143 12.0609 1 11 1C9.93913 1 8.92172 1.42143 8.17157 2.17157C7.42143 2.92172 7 3.93913 7 5V10" stroke="white" stroke-width="2" stroke-linecap="round" stroke-linejoin="round"/>
</svg>