<svg xmlns="http://www.w3.org/2000/svg" width="18" height="24" viewBox="0 0 18 24" fill="none">
<path fill-rule="evenodd" clip-rule="evenodd" d="M2.63915 2.76482C4.32637 0.997261 6.61392 0.00294898 9 0C11.3861 0.00294898 13.6736 0.997261 15.3608 2.76482C17.0481 4.53238 17.9972 6.92886 18 9.42857C18.0028 11.4704 17.3661 13.4568 16.1877 15.0831L16.1869 15.0857C16.1869 15.0857 15.9406 15.4234 15.9046 15.4689L9 24L2.09864 15.4731C2.05855 15.4243 1.8131 15.0857 1.8131 15.0857C0.634084 13.4587 -0.00284824 11.4713 9.57508e-06 9.42857C0.0028245 6.92886 0.951939 4.53238 2.63915 2.76482ZM9 12.8571C7.19252 12.8571 5.72727 11.3221 5.72727 9.42857C5.72727 7.54292 7.18032 6.01281 8.9774 6.00008C8.99322 5.99997 9.00904 5.99997 9.02486 6.0001C9.88831 6.00683 10.6722 6.36386 11.2535 6.94225C11.2969 6.98542 11.3392 7.02986 11.3803 7.07552C11.9215 7.67613 12.2578 8.4815 12.2722 9.36901C12.2726 9.38885 12.2727 9.40871 12.2727 9.42857C12.2727 9.43115 12.2727 9.43373 12.2727 9.43631C12.2687 11.3263 10.805 12.8571 9 12.8571Z" fill="black"/>
</svg>