<svg width="66" height="44" viewBox="0 0 66 44" fill="none" xmlns="http://www.w3.org/2000/svg">
<g id="Group 17679">
<g id="Layer 17">
<path id="Vector" d="M13.6998 28.0135C13.219 28.6156 12.9898 29.3803 13.0602 30.1476L12.9042 42.6618C11.1882 42.8724 9.05103 42.8755 8.23515 41.3577C7.94967 40.8257 7.89975 40.2017 7.86075 39.598C7.51912 34.3674 8.73591 28.9901 8.97615 23.7594C11.2756 23.5083 12.4674 23.3117 14.1943 21.7751C16.3377 19.8657 16.8307 16.5117 19.1395 14.8066C19.4998 17.5366 19.8462 18.7581 18.3174 21.0575L13.6998 28.0135Z" fill="#F86624"/>
<path id="Vector_2" d="M58.0006 27.0508L26.8663 24.3161L58.0006 24.1523V27.0508Z" fill="#F86624"/>
<path id="Vector_3" d="M35.8205 9.20632C35.4399 8.47781 35.301 7.45289 35.9406 6.93653C36.0962 6.8376 36.2428 6.72538 36.379 6.60114C36.6021 6.3453 36.5865 5.94438 36.4289 5.64486C36.2516 5.35415 36.0098 5.10809 35.7222 4.92571C34.8315 4.27987 33.7582 3.74792 32.6709 3.91328C31.0704 4.15663 30.0283 5.90538 30.0954 7.52465C30.1624 9.14392 31.0688 10.6041 32.1031 11.8505C32.2504 12.0512 32.436 12.2209 32.6491 12.3497C32.9221 12.4667 33.2182 12.52 33.5149 12.5057C34.2481 12.5275 38.2947 12.9066 38.5068 12.2062C38.6893 11.6305 36.1497 9.83188 35.8205 9.20632Z" fill="#F86624"/>
</g>
<g id="Layer 11">
<path id="Vector_4" d="M59.456 12.4594C59.3577 12.3027 59.2213 12.1736 59.0595 12.0841C58.8977 11.9946 58.7158 11.9477 58.5309 11.9477H44.803C46.3973 9.69196 46.4035 7.78097 46.3864 7.39097V7.24589C46.3815 6.22695 46.0718 5.23278 45.4971 4.39137C44.9223 3.54996 44.109 2.89982 43.1616 2.52463C42.2142 2.14944 41.1762 2.06638 40.1813 2.28615C39.1863 2.50591 38.2799 3.01844 37.5787 3.75775C36.8776 3.01875 35.9714 2.50649 34.9767 2.28692C33.982 2.06734 32.9443 2.1505 31.9973 2.52569C31.0503 2.90087 30.2372 3.55092 29.6628 4.39214C29.0883 5.23336 28.7788 6.22726 28.7741 7.24589V7.38473C28.7554 7.77473 28.7616 9.68728 30.3544 11.9415H15.8574C15.8673 11.8811 15.8725 11.8201 15.873 11.7589V8.20685C15.873 7.91723 15.7579 7.63948 15.5531 7.43469C15.3483 7.2299 15.0706 7.11485 14.781 7.11485C14.4914 7.11485 14.2136 7.2299 14.0088 7.43469C13.804 7.63948 13.689 7.91723 13.689 8.20685V11.7652C13.6891 11.8264 13.6949 11.8875 13.7061 11.9477H7.88269C7.70313 11.9477 7.52634 11.992 7.36798 12.0766C7.20961 12.1612 7.07456 12.2836 6.97478 12.4329L0.18414 22.6165C0.074237 22.7809 0.0110488 22.9721 0.00132182 23.1696C-0.00840516 23.3671 0.0356942 23.5636 0.128911 23.738C0.222128 23.9124 0.360964 24.0583 0.530595 24.1599C0.700227 24.2616 0.894286 24.3153 1.09205 24.3153H7.45369V42.9073C7.45369 43.1969 7.56874 43.4746 7.77353 43.6794C7.97832 43.8842 8.25607 43.9993 8.54569 43.9993H58.091C58.3806 43.9993 58.6583 43.8842 58.8631 43.6794C59.0679 43.4746 59.183 43.1969 59.183 42.9073V24.3153H64.905C65.0999 24.3151 65.2911 24.2628 65.4589 24.1638C65.6268 24.0648 65.765 23.9227 65.8594 23.7523C65.9538 23.5818 66.0009 23.3892 65.9957 23.1944C65.9905 22.9996 65.9334 22.8098 65.8301 22.6446L59.456 12.4594ZM8.47081 14.1317H18.5109L13.1742 22.1313H3.13408L8.47081 14.1317ZM27.4715 22.1313L22.4639 14.1317H57.9256L62.9332 22.1313H27.4715ZM30.9503 7.51577C30.9526 7.48357 30.9526 7.45125 30.9503 7.41905V7.27241C30.9683 6.49913 31.2851 5.76289 31.8343 5.21813C32.3834 4.67337 33.1221 4.36244 33.8955 4.35055C35.1716 4.35055 36.1653 5.23818 36.585 6.11802C36.6737 6.30434 36.8134 6.4617 36.9879 6.57187C37.1624 6.68205 37.3645 6.74052 37.5709 6.74052C37.7772 6.74052 37.9794 6.68205 38.1539 6.57187C38.3284 6.4617 38.4681 6.30434 38.5568 6.11802C38.9764 5.23818 39.9701 4.35055 41.2384 4.35055C42.0137 4.35963 42.7552 4.66933 43.3067 5.21438C43.8581 5.75943 44.1764 6.49727 44.1946 7.27241V7.41905C44.1922 7.44656 44.1922 7.47422 44.1946 7.50173C44.1946 7.58753 44.2944 9.6124 41.9279 11.9477H33.2076C30.852 9.61708 30.9471 7.58753 30.9503 7.51577ZM9.63768 24.3153H13.7576C13.9373 24.3151 14.1142 24.2706 14.2726 24.1857C14.4309 24.1008 14.5659 23.9782 14.6655 23.8286L19.4001 16.7322V41.8153H9.63768V24.3153ZM56.999 41.8153H21.8321V17.2376L25.9411 23.8021C26.0392 23.959 26.1756 24.0884 26.3374 24.1782C26.4992 24.268 26.6812 24.3151 26.8662 24.3153H56.999V41.8153Z" fill="#005D63"/>
<path id="Vector_5" d="M20.804 4.78145V8.33978C20.804 8.6294 20.919 8.90715 21.1238 9.11194C21.3286 9.31673 21.6063 9.43178 21.8959 9.43178C22.1856 9.43178 22.4633 9.31673 22.6681 9.11194C22.8729 8.90715 22.9879 8.6294 22.9879 8.33978V4.78145C22.9879 4.49183 22.8729 4.21408 22.6681 4.00929C22.4633 3.8045 22.1856 3.68945 21.8959 3.68945C21.6063 3.68945 21.3286 3.8045 21.1238 4.00929C20.919 4.21408 20.804 4.49183 20.804 4.78145Z" fill="#005D63"/>
<path id="Vector_6" d="M54.4062 1.88106V8.07422C54.4063 8.36383 54.5213 8.64159 54.7261 8.84637C54.9309 9.05116 55.2086 9.16621 55.4982 9.16621C55.7879 9.16621 56.0656 9.05116 56.2704 8.84637C56.4752 8.64159 56.5902 8.36383 56.5902 8.07422V1.88106C56.5902 1.59144 56.4752 1.31369 56.2704 1.1089C56.0656 0.904113 55.7879 0.789062 55.4982 0.789062C55.2086 0.789062 54.9309 0.904113 54.7261 1.1089C54.5213 1.31369 54.4062 1.59144 54.4062 1.88106Z" fill="#005D63"/>
<path id="Vector_7" d="M50.057 1.09199V6.62684C50.057 6.91645 50.1721 7.19421 50.3769 7.39899C50.5816 7.60378 50.8594 7.71883 51.149 7.71883C51.4386 7.71883 51.7164 7.60378 51.9212 7.39899C52.126 7.19421 52.241 6.91645 52.241 6.62684V1.09199C52.241 0.802379 52.126 0.524625 51.9212 0.319837C51.7164 0.115048 51.4386 0 51.149 0C50.8594 0 50.5816 0.115048 50.3769 0.319837C50.1721 0.524625 50.057 0.802379 50.057 1.09199Z" fill="#005D63"/>
</g>
</g>
</svg>
