<svg xmlns="http://www.w3.org/2000/svg" width="18" height="18" viewBox="0 0 18 18" fill="none">
<path d="M16.8716 18C7.27426 18.0135 -0.0101145 10.6425 1.0542e-05 1.12837C1.0542e-05 0.506249 0.50401 0 1.12501 0H4.09501C4.65188 0 5.12551 0.4095 5.20763 0.960749C5.4035 2.28268 5.78804 3.56967 6.34951 4.78237L6.46538 5.03212C6.54322 5.20018 6.55996 5.39014 6.51273 5.56923C6.46549 5.74832 6.35723 5.90531 6.20663 6.01312C5.28638 6.67012 4.93538 7.99199 5.65201 9.02249C6.55424 10.32 7.68032 11.4464 8.9775 12.3491C10.0091 13.0646 11.331 12.7136 11.9869 11.7945C12.0946 11.6434 12.2517 11.5348 12.431 11.4873C12.6104 11.4399 12.8007 11.4566 12.969 11.5346L13.2176 11.6494C14.4304 12.2119 15.7174 12.5966 17.0392 12.7924C17.5905 12.8745 18 13.3481 18 13.9061V16.875C18 17.0228 17.9709 17.1692 17.9143 17.3058C17.8576 17.4423 17.7747 17.5664 17.6701 17.6709C17.5655 17.7754 17.4414 17.8582 17.3047 17.9147C17.1681 17.9711 17.0217 18.0001 16.8739 18H16.8716Z" fill="#131717"/>
</svg>