<svg width="24" height="17" viewBox="0 0 24 17" fill="none" xmlns="http://www.w3.org/2000/svg">
<path d="M24 8.296C23.9946 8.70943 23.828 9.1044 23.5356 9.39677C23.2432 9.68913 22.8483 9.85577 22.4348 9.86117H5.36408L9.53786 14.0349C9.83674 14.3311 10.0057 14.7338 10.0077 15.1545C10.0097 15.5752 9.84441 15.9795 9.5483 16.2784C9.25219 16.5772 8.84947 16.7462 8.42875 16.7482C8.00803 16.7502 7.60377 16.5849 7.30489 16.2888L0.459897 9.48553C0.19358 9.21618 0.0309743 8.8614 0.000781366 8.48382C-0.00597149 8.2618 0.0311007 8.04062 0.109879 7.83294C0.188657 7.62525 0.307597 7.43512 0.459897 7.27343L7.30489 0.449303C7.60099 0.1612 7.99781 0 8.41094 0C8.82407 0 9.2209 0.1612 9.51699 0.449303C9.8101 0.742773 9.97473 1.14058 9.97473 1.55535C9.97473 1.97013 9.8101 2.36794 9.51699 2.66141L5.34322 6.83518H22.3514C22.7619 6.81771 23.1631 6.96022 23.4706 7.23271C23.7782 7.5052 23.9679 7.88639 24 8.296Z" fill="currentColor"/>
</svg>
