<svg xmlns="http://www.w3.org/2000/svg" width="50" height="50" viewBox="0 0 50 50" fill="none">
<path d="M7.61493 36.0945H10.0151C10.3287 37.1735 10.9836 38.1216 11.8811 38.7974C12.779 39.4729 13.8714 39.8398 14.995 39.8426C16.1234 39.851 17.2232 39.4891 18.1256 38.8119C19.0282 38.1347 19.6836 37.1802 19.9911 36.0945H27.7946C28.1094 37.1768 28.767 38.1275 29.6688 38.8033C30.5706 39.4793 31.6676 39.844 32.7946 39.8426C33.9236 39.8521 35.0246 39.4902 35.9277 38.813C36.8311 38.1359 37.4871 37.1808 37.7946 36.0945H40.5508C41.0614 36.0957 41.5514 35.8934 41.9124 35.5323C42.2734 35.1713 42.4757 34.681 42.4746 34.1705V30.4866C42.4718 30.0569 42.3273 29.64 42.0633 29.3007C41.7991 28.9615 41.4305 28.719 41.0147 28.6105V28.5745H27.3947C27.0022 28.5745 26.6257 28.4188 26.3482 28.1411C26.0706 27.8635 25.9146 27.4871 25.9146 27.0946V14.5789C25.9146 14.2828 25.7971 13.9991 25.5878 13.7895C25.3786 13.5802 25.0945 13.4628 24.7988 13.4628H20.0426C18.9539 13.4695 17.9321 13.9898 17.2868 14.8668C17.2349 14.9187 17.1827 15.0227 17.1308 15.0746L13.1308 21.1106L10.3108 21.5108C9.5028 21.6218 8.76223 22.0216 8.22623 22.6366C7.69023 23.2513 7.39473 24.0393 7.39473 24.8548V29.8108C6.92458 29.8705 6.49208 30.0981 6.1768 30.4519C5.86151 30.8055 5.68433 31.2611 5.67847 31.7349V34.1707C5.67763 34.6836 5.8816 35.1755 6.24515 35.5368C6.60871 35.8981 7.10201 36.099 7.61458 36.0948L7.61493 36.0945ZM32.8149 32.0345C33.501 32.046 34.1556 32.3233 34.6408 32.8085C35.1259 33.2938 35.4036 33.9486 35.4148 34.6344C35.4148 35.3241 35.1411 35.9854 34.6534 36.4731C34.1656 36.9606 33.5044 37.2345 32.8149 37.2345C32.1252 37.2345 31.4639 36.9606 30.9765 36.4731C30.4888 35.9854 30.2148 35.3241 30.2148 34.6344C30.2148 33.945 30.4888 33.2837 30.9765 32.796C31.4639 32.3085 32.1252 32.0345 32.8149 32.0345ZM14.9949 32.0384C15.681 32.0499 16.3356 32.3275 16.8208 32.8127C17.306 33.2977 17.5836 33.9525 17.5948 34.6386C17.5928 35.3275 17.3183 35.9877 16.8311 36.4748C16.344 36.9617 15.6839 37.2365 14.9949 37.2385C14.3088 37.2273 13.6542 36.9497 13.1691 36.4644C12.6839 35.9792 12.4062 35.3244 12.3951 34.6386C12.397 33.9497 12.6716 33.2895 13.1587 32.8024C13.6459 32.3152 14.306 32.0407 14.9949 32.0384ZM28.4149 24.9827V11.2627C28.4149 10.9753 28.5293 10.6996 28.7324 10.4962C28.9359 10.2928 29.2115 10.1787 29.4989 10.1787H34.6587L34.659 14.2108C34.659 14.4008 34.813 14.5548 35.003 14.5548H37.7151H37.7148C37.8061 14.5548 37.8937 14.5185 37.9581 14.4541C38.0226 14.3894 38.0589 14.302 38.0589 14.2108V10.1787H43.219C43.5064 10.1787 43.7821 10.2928 43.9854 10.4962C44.1888 10.6996 44.303 10.9753 44.303 11.2627V24.9827C44.303 25.27 44.1888 25.5457 43.9854 25.7491C43.782 25.9522 43.5064 26.0666 43.219 26.0666H29.4947C29.2079 26.0655 28.9333 25.9508 28.7308 25.7477C28.5285 25.5446 28.4147 25.2695 28.4147 24.9826L28.4149 24.9827Z" fill="#005D63"/>
</svg>