<svg xmlns="http://www.w3.org/2000/svg" width="70" height="70" viewBox="0 0 70 70" fill="none">
<path d="M59.3388 50.5322H55.9786C55.5395 52.0427 54.6227 53.3701 53.3661 54.3162C52.1091 55.2619 50.5798 55.7756 49.0067 55.7795C47.427 55.7912 45.8872 55.2845 44.6239 54.3365C43.3602 53.3884 42.4427 52.0521 42.0122 50.5322H31.0872C30.6465 52.0474 29.7259 53.3783 28.4634 54.3244C27.2009 55.2708 25.665 55.7814 24.0872 55.7795C22.5067 55.7928 20.9653 55.2861 19.7009 54.3381C18.4361 53.39 17.5177 52.0529 17.0872 50.5322H13.2286C12.5137 50.5337 11.8278 50.2505 11.3224 49.7451C10.8169 49.2396 10.5337 48.5533 10.5352 47.8385V42.6811C10.5392 42.0795 10.7415 41.4959 11.111 41.0209C11.4809 40.5459 11.997 40.2064 12.579 40.0544V40.0041H31.647C32.1966 40.0041 32.7236 39.7861 33.1122 39.3974C33.5008 39.0087 33.7193 38.4818 33.7193 37.9322V20.4102C33.7193 19.9958 33.8837 19.5985 34.1767 19.3051C34.4696 19.0121 34.8673 18.8477 35.2814 18.8477H41.94C43.4642 18.8571 44.8947 19.5856 45.7982 20.8133C45.8708 20.8859 45.9439 21.0317 46.0165 21.1043L51.6165 29.5547L55.5645 30.1149C56.6957 30.2703 57.7325 30.8301 58.4829 31.6911C59.2333 32.5516 59.647 33.6548 59.647 34.7966V41.7349C60.3052 41.8185 60.9107 42.1372 61.3521 42.6325C61.7936 43.1275 62.0416 43.7653 62.0498 44.4286V47.8388C62.051 48.5568 61.7654 49.2454 61.2564 49.7513C60.7475 50.2572 60.0568 50.5384 59.3392 50.5326L59.3388 50.5322ZM24.0588 44.8482C23.0982 44.8642 22.1818 45.2525 21.5026 45.9318C20.8234 46.6111 20.4346 47.5279 20.419 48.488C20.419 49.4536 20.8022 50.3794 21.485 51.0622C22.1678 51.7446 23.0936 52.1282 24.0588 52.1282C25.0244 52.1282 25.9502 51.7446 26.6326 51.0622C27.3154 50.3794 27.699 49.4536 27.699 48.488C27.699 47.5227 27.3154 46.597 26.6326 45.9142C25.9501 45.2317 25.0244 44.8482 24.0588 44.8482ZM49.0068 44.8536C48.0462 44.8696 47.1298 45.2583 46.4506 45.9376C45.7713 46.6165 45.3826 47.5333 45.367 48.4938C45.3697 49.4583 45.7541 50.3825 46.4361 51.0645C47.1181 51.7462 48.0423 52.1309 49.0068 52.1336C49.9673 52.118 50.8838 51.7293 51.563 51.05C52.2422 50.3707 52.631 49.4539 52.6466 48.4938C52.6438 47.5294 52.2594 46.6051 51.5775 45.9231C50.8954 45.2411 49.9713 44.8567 49.0068 44.8536ZM30.2188 34.9755V15.7675C30.2188 15.3652 30.0586 14.9792 29.7742 14.6945C29.4895 14.4098 29.1035 14.25 28.7012 14.25H21.4774L21.477 19.8949C21.477 20.1609 21.2614 20.3765 20.9954 20.3765H17.1985H17.1989C17.0712 20.3765 16.9485 20.3258 16.8583 20.2355C16.768 20.1449 16.7173 20.0226 16.7173 19.8949V14.25H9.49305C9.09071 14.25 8.70477 14.4098 8.42004 14.6945C8.13528 14.9793 7.97552 15.3652 7.97552 15.7675V34.9755C7.97552 35.3779 8.13528 35.7638 8.42004 36.0485C8.70481 36.3329 9.09075 36.4931 9.49305 36.4931H28.7071C29.1086 36.4915 29.493 36.331 29.7766 36.0466C30.0597 35.7622 30.2191 35.3771 30.2191 34.9755L30.2188 34.9755Z" fill="#005161"/>
</svg>