<svg width="512" height="185" viewBox="0 0 512 185" fill="none" xmlns="http://www.w3.org/2000/svg">
<path d="M508.659 38.888C510.584 47.886 506.228 58.3322 495.403 69.7494C484.643 81.0962 467.924 92.9206 446.384 104.496C403.336 127.631 341.555 149.495 271.258 164.534C200.961 179.572 135.642 184.898 86.8959 181.4C62.5056 179.651 42.4119 175.702 27.9518 169.75C13.4023 163.761 5.15387 156.011 3.22896 147.013C1.30406 138.015 5.65982 127.569 16.4858 116.152C27.2452 104.805 43.9646 92.9808 65.5042 81.4053C108.553 58.2709 170.334 36.4063 240.631 21.3678C310.928 6.32935 376.247 1.00385 424.992 4.50099C449.383 6.25081 469.476 10.1998 483.936 16.1516C498.486 22.1402 506.734 29.8901 508.659 38.888Z" stroke="#005D63" stroke-width="5"/>
</svg>
