<svg xmlns="http://www.w3.org/2000/svg" width="18" height="11" viewBox="0 0 18 11" fill="none">
<path d="M0 10.2143C0 10.0059 0.0790178 9.80605 0.21967 9.6587C0.360322 9.51135 0.551088 9.42857 0.75 9.42857H5.25C5.44891 9.42857 5.63968 9.51135 5.78033 9.6587C5.92098 9.80605 6 10.0059 6 10.2143C6 10.4227 5.92098 10.6225 5.78033 10.7699C5.63968 10.9172 5.44891 11 5.25 11H0.75C0.551088 11 0.360322 10.9172 0.21967 10.7699C0.0790178 10.6225 0 10.4227 0 10.2143ZM0 5.5C0 5.29162 0.0790178 5.09177 0.21967 4.94442C0.360322 4.79707 0.551088 4.71429 0.75 4.71429H11.25C11.4489 4.71429 11.6397 4.79707 11.7803 4.94442C11.921 5.09177 12 5.29162 12 5.5C12 5.70838 11.921 5.90823 11.7803 6.05558C11.6397 6.20293 11.4489 6.28571 11.25 6.28571H0.75C0.551088 6.28571 0.360322 6.20293 0.21967 6.05558C0.0790178 5.90823 0 5.70838 0 5.5ZM0 0.785714C0 0.57733 0.0790178 0.377481 0.21967 0.230131C0.360322 0.0827805 0.551088 0 0.75 0H17.25C17.4489 0 17.6397 0.0827805 17.7803 0.230131C17.921 0.377481 18 0.57733 18 0.785714C18 0.994099 17.921 1.19395 17.7803 1.3413C17.6397 1.48865 17.4489 1.57143 17.25 1.57143H0.75C0.551088 1.57143 0.360322 1.48865 0.21967 1.3413C0.0790178 1.19395 0 0.994099 0 0.785714Z" fill="#566363"/>
</svg>