<svg xmlns="http://www.w3.org/2000/svg" width="20" height="17" viewBox="0 0 20 17" fill="none">
<path d="M14.4264 0C12.5209 0 10.8927 1.3213 9.99818 2.23223C9.10364 1.3213 7.47909 0 5.57455 0C2.29182 0 0 2.22604 0 5.41255C0 8.92363 2.84636 11.193 5.6 13.3881C6.9 14.4255 8.24545 15.4974 9.27727 16.686C9.45091 16.885 9.70545 17 9.97273 17H10.0255C10.2936 17 10.5473 16.8841 10.72 16.686C11.7536 15.4974 13.0982 14.4246 14.3991 13.3881C17.1518 11.1939 20 8.92451 20 5.41255C20 2.22604 17.7082 0 14.4264 0Z" fill="#F86624"/>
</svg>