<svg width="15" height="14" viewBox="0 0 15 14" fill="none" xmlns="http://www.w3.org/2000/svg">
<path d="M0.0761719 1.68652C0.0761719 1.22031 0.239898 0.835691 0.567336 0.53267C0.894774 0.229636 1.32046 0.078125 1.84436 0.078125C2.35892 0.078125 2.77523 0.2273 3.09332 0.525677C3.42076 0.83337 3.58449 1.23429 3.58449 1.72847C3.58449 2.17603 3.42545 2.54898 3.10736 2.84736C2.77992 3.15505 2.34956 3.30889 1.8163 3.30889H1.80226C1.28771 3.30889 0.871395 3.15505 0.553303 2.84736C0.235211 2.53966 0.0761719 2.15271 0.0761719 1.68652ZM0.258604 13.9243V4.58162H3.37399V13.9243H0.258604ZM5.10008 13.9243H8.21546V8.7075C8.21546 8.38115 8.25289 8.1294 8.32773 7.95225C8.4587 7.63523 8.65751 7.36716 8.92414 7.14806C9.19078 6.92894 9.52523 6.81938 9.92752 6.81938C10.9753 6.81938 11.4992 7.52334 11.4992 8.93127V13.9243H14.6146V8.56764C14.6146 7.18768 14.2872 6.14106 13.6323 5.42778C12.9774 4.71449 12.112 4.35785 11.0362 4.35785C9.82929 4.35785 8.88906 4.87533 8.21546 5.91029V5.93827H8.20143L8.21546 5.91029V4.58162H5.10008C5.11879 4.87999 5.12815 5.80772 5.12815 7.36484C5.12815 8.92194 5.11879 11.1084 5.10008 13.9243Z" fill="white"/>
</svg>
