<svg xmlns="http://www.w3.org/2000/svg" width="50" height="50" viewBox="0 0 50 50" fill="none">
<path d="M37.4445 12.2284C36.4767 11.4353 35.2517 11 33.9822 11H15.3039C14.0344 11 12.8003 11.4348 11.8416 12.2284L9.1875 14.4117H40.0905L37.4445 12.2284Z" fill="#005D63"/>
<path d="M43.2853 19.3935C43.2853 18.5833 43.0812 17.7901 42.6726 17.0396C42.3619 16.4765 41.7583 16.1182 41.0925 16.1182H8.18369C7.51788 16.1182 6.91426 16.4765 6.61232 17.0393C6.20411 17.7898 6 18.5833 6 19.3936V34.8829C6 37.7059 8.38821 40.0005 11.3265 40.0005H37.9592C40.8975 40.0005 43.2857 37.7059 43.2857 34.8829L43.2853 19.3935ZM37.9588 29.7652C37.9588 30.7035 37.1598 31.4711 36.1833 31.4711H23.7547C22.7782 31.4711 21.9792 30.7035 21.9792 29.7652V22.9418C21.9792 22.0035 22.7782 21.2359 23.7547 21.2359H36.1833C37.1598 21.2359 37.9588 22.0035 37.9588 22.9418V29.7652Z" fill="#005D63"/>
<path d="M25.5303 24.6465H34.4078V28.0582H25.5303V24.6465Z" fill="#005D63"/>
</svg>