<svg xmlns="http://www.w3.org/2000/svg" width="70" height="70" viewBox="0 0 70 70" fill="none">
<path fill-rule="evenodd" clip-rule="evenodd" d="M20.3 14C16.8206 14 14 16.8206 14 20.3V49.7C14 53.1794 16.8206 56 20.3 56H49.7C53.1794 56 56 53.1794 56 49.7V28.7C56 25.9569 54.2469 23.6233 51.8 22.7585V20.3C51.8 16.8206 48.9794 14 45.5 14H20.3ZM20.3 18.2C19.1402 18.2 18.2 19.1402 18.2 20.3C18.2 21.4598 19.1402 22.4 20.3 22.4H47.6V20.3C47.6 19.1402 46.6598 18.2 45.5 18.2H20.3ZM45.5 35C43.1804 35 41.3 36.8804 41.3 39.2C41.3 41.5196 43.1804 43.4 45.5 43.4H49.7C50.8598 43.4 51.8 42.4598 51.8 41.3V37.1C51.8 35.9402 50.8598 35 49.7 35H45.5Z" fill="#005161"/>
</svg>