<svg xmlns="http://www.w3.org/2000/svg" width="70" height="70" viewBox="0 0 70 70" fill="none">
<path fill-rule="evenodd" clip-rule="evenodd" d="M12 16.3333C12 15.0447 13.0787 14 14.4093 14H15.4656C18.7822 14 21.6732 16.1861 22.4776 19.3022L22.9159 21H51.7693C56.3932 21 59.828 25.1469 58.825 29.5185L56.148 41.1852C55.4131 44.3879 52.48 46.6667 49.0923 46.6667H30.2178C26.9012 46.6667 24.0102 44.4806 23.2058 41.3644L17.8029 20.4341C17.5348 19.3954 16.5711 18.6667 15.4656 18.6667H14.4093C13.0787 18.6667 12 17.622 12 16.3333ZM30.0699 56C32.0658 56 33.6838 54.433 33.6838 52.5C33.6838 50.567 32.0658 49 30.0699 49C28.074 49 26.456 50.567 26.456 52.5C26.456 54.433 28.074 56 30.0699 56ZM49.3438 56C51.3398 56 52.9578 54.433 52.9578 52.5C52.9578 50.567 51.3398 49 49.3438 49C47.3479 49 45.7299 50.567 45.7299 52.5C45.7299 54.433 47.3479 56 49.3438 56Z" fill="#005161"/>
</svg>