<svg xmlns="http://www.w3.org/2000/svg" width="41" height="41" viewBox="0 0 41 41" fill="none">
<path fill-rule="evenodd" clip-rule="evenodd" d="M8.5415 3.41699C5.71105 3.41699 3.4165 5.71153 3.4165 8.54199V32.4587C3.4165 35.2891 5.71104 37.5837 8.5415 37.5837H32.4582C35.2886 37.5837 37.5832 35.2891 37.5832 32.4587V15.3753C37.5832 13.1439 36.157 11.2455 34.1665 10.5419V8.54199C34.1665 5.71153 31.872 3.41699 29.0415 3.41699H8.5415ZM8.5415 6.83366C7.59802 6.83366 6.83317 7.59851 6.83317 8.54199C6.83317 9.48548 7.59802 10.2503 8.5415 10.2503H30.7498V8.54199C30.7498 7.59851 29.985 6.83366 29.0415 6.83366H8.5415ZM29.0415 20.5003C27.1545 20.5003 25.6248 22.03 25.6248 23.917C25.6248 25.804 27.1545 27.3337 29.0415 27.3337H32.4582C33.4017 27.3337 34.1665 26.5688 34.1665 25.6253V22.2087C34.1665 21.2652 33.4017 20.5003 32.4582 20.5003H29.0415Z" fill="#005D63"/>
</svg>