<svg xmlns="http://www.w3.org/2000/svg" width="70" height="70" viewBox="0 0 70 70" fill="none">
<path d="M55.4568 25.9075C56.6626 25.9075 57.8184 26.3865 58.6711 27.2388C59.5235 28.0911 60.0025 29.2475 60.0025 30.4531V39.5445C60.0025 40.7498 59.5235 41.9061 58.6711 42.7588C57.8184 43.6111 56.6625 44.0902 55.4568 44.0902H53.0432C52.4889 48.4841 50.3501 52.525 47.0288 55.4543C43.7067 58.3833 39.4303 60 35.0012 60V55.4543C38.618 55.4543 42.0865 54.0174 44.6439 51.46C47.2017 48.9026 48.6382 45.4342 48.6382 41.8173V28.1803C48.6382 24.5635 47.2017 21.0946 44.6439 18.5372C42.0865 15.9798 38.618 14.5433 35.0012 14.5433C31.3843 14.5433 27.9159 15.9798 25.3585 18.5372C22.8007 21.0946 21.3642 24.5635 21.3642 28.1803V44.0902H14.5457C13.3399 44.0902 12.1841 43.6111 11.3313 42.7588C10.479 41.9061 10 40.7498 10 39.5445V30.4531C10 29.2473 10.479 28.0911 11.3313 27.2388C12.1841 26.3865 13.34 25.9075 14.5457 25.9075H16.9593C17.514 21.5135 19.6528 17.4735 22.9745 14.5444C26.2962 11.6158 30.5726 10 35.0011 10C39.4295 10 43.706 11.6159 47.0276 14.5444C50.3493 17.4733 52.4882 21.5134 53.0428 25.9075H55.4568ZM25.3645 43.601L27.7735 39.7461C29.9398 41.1032 32.4451 41.8211 35.0012 41.8169C37.5573 41.8211 40.0627 41.1032 42.2289 39.7461L44.6379 43.601C41.7499 45.4105 38.4096 46.3675 35.0012 46.3626C31.5928 46.3676 28.2525 45.4105 25.3645 43.601Z" fill="#005161"/>
</svg>