<svg width="18" height="14" viewBox="0 0 18 14" fill="none" xmlns="http://www.w3.org/2000/svg">
<path d="M18 1.7173C17.3306 1.99528 16.6174 2.17954 15.8737 2.26901C16.6388 1.83659 17.2226 1.15706 17.4971 0.338007C16.7839 0.74061 15.9964 1.02499 15.1571 1.18369C14.4799 0.500965 13.5146 0.078125 12.4616 0.078125C10.4186 0.078125 8.77387 1.64807 8.77387 3.57268C8.77387 3.8496 8.79862 4.11588 8.85938 4.36937C5.7915 4.22771 3.07687 2.83564 1.25325 0.715048C0.934875 1.23801 0.748125 1.83659 0.748125 2.48097C0.748125 3.69091 1.40625 4.76345 2.38725 5.3844C1.79437 5.37375 1.21275 5.21079 0.72 4.9541C0.72 4.96475 0.72 4.9786 0.72 4.99244C0.72 6.6902 1.99912 8.10037 3.6765 8.42523C3.37612 8.50298 3.04875 8.54025 2.709 8.54025C2.47275 8.54025 2.23425 8.52747 2.01038 8.48061C2.4885 9.86416 3.84525 10.8813 5.4585 10.9143C4.203 11.8442 2.60888 12.4044 0.883125 12.4044C0.5805 12.4044 0.29025 12.3916 0 12.3565C1.63462 13.3545 3.57188 13.9243 5.661 13.9243C12.4515 13.9243 16.164 8.59883 16.164 3.98274C16.164 3.8283 16.1584 3.67919 16.1505 3.53114C16.8829 3.03907 17.4982 2.42452 18 1.7173Z" fill="white"/>
</svg>
