<svg xmlns="http://www.w3.org/2000/svg" width="18" height="18" viewBox="0 0 18 18" fill="none">
<path fill-rule="evenodd" clip-rule="evenodd" d="M1.58249 8.57812C2.96568 5.18114 5.81942 3 9 3C12.1806 3 15.0343 5.18114 16.4175 8.57812C16.5275 8.84824 16.5275 9.15176 16.4175 9.42188C15.0343 12.8189 12.1806 15 9 15C5.81942 15 2.96568 12.8189 1.58249 9.42188C1.4725 9.15176 1.4725 8.84824 1.58249 8.57812ZM9 13.6122C11.5643 13.6122 13.9153 11.8401 15.1124 9C13.9153 6.15994 11.5643 4.38775 9 4.38775C6.43571 4.38775 4.08469 6.15994 2.88757 9C4.08469 11.8401 6.43571 13.6122 9 13.6122ZM9 11.7347C7.51592 11.7347 6.31283 10.5103 6.31283 9C6.31283 7.48967 7.51592 6.26531 9 6.26531C10.4841 6.26531 11.6872 7.48967 11.6872 9C11.6872 10.5103 10.4841 11.7347 9 11.7347ZM9 10.3469C9.73096 10.3469 10.3235 9.74389 10.3235 9C10.3235 8.25611 9.73096 7.65306 9 7.65306C8.26903 7.65306 7.67647 8.25611 7.67647 9C7.67647 9.74389 8.26903 10.3469 9 10.3469Z" fill="#131717"/>
</svg>